<?xml version="1.0" standalone="no"?>
<!DOCTYPE svg PUBLIC "-//W3C//DTD SVG 20010904//EN"
 "http://www.w3.org/TR/2001/REC-SVG-20010904/DTD/svg10.dtd">
<svg version="1.0" xmlns="http://www.w3.org/2000/svg"
 width="700.000000pt" height="700.000000pt" viewBox="0 0 700.000000 700.000000"
 preserveAspectRatio="xMidYMid meet">
<metadata>
Created by potrace 1.11, written by Peter Selinger 2001-2013
</metadata>
<g transform="translate(0.000000,700.000000) scale(0.100000,-0.100000)"
fill="#000000" stroke="none">
<path d="M4099 6981 c-26 -10 -57 -26 -70 -35 -40 -27 -1499 -1489 -1519
-1521 -29 -47 -48 -125 -44 -183 7 -112 17 -125 463 -571 226 -226 411 -413
411 -415 0 -2 -101 -106 -225 -230 -154 -154 -225 -232 -225 -247 0 -13 25
-47 64 -87 l65 -67 -1510 -1509 c-1205 -1205 -1509 -1514 -1509 -1534 0 -20
62 -87 277 -304 227 -227 282 -278 304 -278 23 0 274 247 1537 1509 l1509
1510 64 -65 c43 -43 71 -64 88 -64 18 0 80 56 248 223 123 122 225 224 228
226 2 1 185 -179 407 -401 222 -222 417 -414 433 -425 46 -32 128 -53 191 -48
118 9 97 -10 909 803 546 547 757 764 775 799 35 68 36 195 0 267 -19 39 -291
316 -1271 1295 -686 685 -1266 1264 -1290 1287 -24 22 -64 48 -89 58 -66 27
-164 30 -221 7z"/>
</g>
</svg>
