<?xml version="1.0" encoding="UTF-8" standalone="no"?>
<svg
   xmlns:dc="http://purl.org/dc/elements/1.1/"
   xmlns:cc="http://creativecommons.org/ns#"
   xmlns:rdf="http://www.w3.org/1999/02/22-rdf-syntax-ns#"
   xmlns:svg="http://www.w3.org/2000/svg"
   xmlns="http://www.w3.org/2000/svg"
   viewBox="0 0 83.18483 25.191242"
   version="1.1"
   id="svg8"
   width="83.18483"
   height="25.191242">
  <defs
     id="defs2" />
  <metadata
     id="metadata5">
    <rdf:RDF>
      <cc:Work
         rdf:about="">
        <dc:format>image/svg+xml</dc:format>
        <dc:type
           rdf:resource="http://purl.org/dc/dcmitype/StillImage" />
        <dc:title></dc:title>
      </cc:Work>
    </rdf:RDF>
  </metadata>
  <g
     id="layer1"
     transform="translate(-14.610941,-12.568079)">
    <g
       id="g147"
       transform="matrix(0,0.04920167,-0.04920167,0,39.802208,12.568054)">
      <path
         style="fill:#df8e59"
         d="m 510.687,472.64 -38.047,38.047 c -1.751,1.751 -4.59,1.751 -6.341,0 l -353.52,-353.52 44.388,-44.388 353.52,353.52 c 1.751,1.751 1.751,4.59 0,6.341 z"
         id="path77" />
      <path
         style="fill:#d37e4d"
         d="m 510.687,466.299 -353.52,-353.52 -21.891,21.891 353.52,353.52 c 1.751,1.751 1.751,4.59 0,6.341 l 21.891,-21.891 c 1.751,-1.751 1.751,-4.59 0,-6.341 z"
         id="path79" />
      <path
         style="fill:#e6e6e6"
         d="m 299.39,238.467 -60.923,60.923 c -1.562,1.562 -4.095,1.562 -5.657,0 l -50.602,-50.602 44.43,-44.43 22.15,-22.15 50.602,50.602 c 1.562,1.563 1.562,4.095 0,5.657 z"
         id="path81" />
      <path
         style="fill:#cccccc"
         d="m 299.39,238.467 -19.321,19.321 -53.43,-53.43 22.15,-22.15 50.602,50.602 c 1.561,1.563 1.561,4.095 -0.001,5.657 z"
         id="path83" />
      <path
         style="fill:#4a575e"
         d="m 325.207,142.895 -21.562,21.562 -0.196,0.206 -160.554,160.544 c -8.746,8.757 -22.942,8.757 -31.699,0 L 6.56,220.581 c -8.746,-8.757 -8.746,-22.953 0,-31.709 L 167.104,28.328 h 0.01 L 188.872,6.56 c 8.757,-8.747 22.952,-8.747 31.709,0 l 104.626,104.636 c 8.756,8.756 8.756,22.952 0,31.699 z"
         id="path85" />
      <path
         style="fill:#3a4449"
         d="m 325.207,142.895 -21.562,21.562 c 8.551,-8.767 8.478,-22.819 -0.196,-31.503 L 198.813,28.328 c -8.757,-8.757 -22.953,-8.757 -31.699,0 L 188.872,6.56 c 8.757,-8.747 22.952,-8.747 31.709,0 l 104.626,104.636 c 8.756,8.756 8.756,22.952 0,31.699 z"
         id="path87" />
      <g
         id="g89" />
      <g
         id="g91" />
      <g
         id="g93" />
      <g
         id="g95" />
      <g
         id="g97" />
      <g
         id="g99" />
      <g
         id="g101" />
      <g
         id="g103" />
      <g
         id="g105" />
      <g
         id="g107" />
      <g
         id="g109" />
      <g
         id="g111" />
      <g
         id="g113" />
      <g
         id="g115" />
      <g
         id="g117" />
    </g>
    <text
       xml:space="preserve"
       style="font-style:normal;font-variant:normal;font-weight:normal;font-stretch:normal;font-size:7.57266px;line-height:1.25;font-family:Roboto;-inkscape-font-specification:Roboto;fill:#333d42;fill-opacity:1;stroke-width:0.189317"
       x="46.748562"
       y="27.881363"
       id="text394"><tspan
         id="tspan392"
         x="46.748562"
         y="27.881363"
         style="font-style:normal;font-variant:normal;font-weight:normal;font-stretch:normal;font-family:'DejaVu Math TeX Gyre';-inkscape-font-specification:'DejaVu Math TeX Gyre';fill:#333d42;fill-opacity:1;stroke-width:0.189317">Chytrá palice</tspan><tspan
         x="46.748562"
         y="37.366276"
         style="font-style:normal;font-variant:normal;font-weight:normal;font-stretch:normal;font-family:Roboto;-inkscape-font-specification:Roboto;fill:#333d42;fill-opacity:1;stroke-width:0.189317"
         id="tspan396" /></text>
    <text
       xml:space="preserve"
       style="font-size:4.80173px;line-height:1.25;font-family:'URW Gothic';-inkscape-font-specification:'URW Gothic';fill:#4a575e;fill-opacity:1;stroke-width:0.120043"
       x="47.778458"
       y="34.232437"
       id="text400"><tspan
         id="tspan398"
         x="47.778458"
         y="34.232437"
         style="fill:#4a575e;fill-opacity:1;stroke-width:0.120043">literární soutěž GJK</tspan></text>
  </g>
</svg>
